<svg xmlns="http://www.w3.org/2000/svg" xmlns:xlink="http://www.w3.org/1999/xlink" width="500" zoomAndPan="magnify" viewBox="0 30 300 190" height="250" preserveAspectRatio="xMidYMid meet" version="1.0"><defs><g/><clipPath id="8ab513968d"><path d="M 84 79 L 109 79 L 109 115.261719 L 84 115.261719 Z M 84 79 " clip-rule="nonzero"/></clipPath><clipPath id="c27b655bbb"><path d="M 75.171875 75.558594 L 102 75.558594 L 102 115 L 75.171875 115 Z M 75.171875 75.558594 " clip-rule="nonzero"/></clipPath><clipPath id="4c7542a982"><path d="M 107 104 L 114.875 104 L 114.875 115 L 107 115 Z M 107 104 " clip-rule="nonzero"/></clipPath></defs><g fill="#231f20" fill-opacity="1"><g transform="translate(119.602626, 94.399873)"><g><path d="M 4.5625 -4.929688 L 4.5625 -2.917969 C 4.5625 -2.734375 4.546875 -2.566406 4.46875 -2.378906 C 4.40625 -2.210938 4.316406 -2.058594 4.160156 -1.875 C 4.023438 -1.703125 3.808594 -1.566406 3.53125 -1.472656 C 3.253906 -1.382812 2.949219 -1.351562 2.578125 -1.367188 L 0.78125 -1.367188 L 0.769531 0 C 1.902344 0 2.765625 -0.015625 3.347656 -0.015625 C 4.207031 -0.015625 4.867188 -0.261719 5.3125 -0.796875 C 5.773438 -1.351562 6.003906 -2.058594 6.019531 -2.917969 L 6.019531 -4.929688 Z M 4.5625 -10.75 L 4.5625 -6.402344 L 6.019531 -6.402344 L 6.019531 -10.75 Z M 4.5625 -10.75 "/></g></g></g><g fill="#231f20" fill-opacity="1"><g transform="translate(133.256243, 94.399873)"><g><path d="M 6.789062 -10.734375 L 6.789062 -9.445312 C 7.753906 -9.304688 8.492188 -8.9375 9 -8.355469 C 9.675781 -7.601562 9.996094 -6.601562 9.996094 -5.375 C 9.996094 -4.175781 9.675781 -3.210938 9 -2.441406 C 8.492188 -1.859375 7.753906 -1.503906 6.789062 -1.351562 L 6.789062 -0.03125 C 8.109375 -0.152344 9.167969 -0.628906 9.996094 -1.457031 C 10.980469 -2.441406 11.457031 -3.746094 11.457031 -5.375 C 11.457031 -7.019531 10.980469 -8.324219 9.996094 -9.289062 C 9.167969 -10.136719 8.109375 -10.613281 6.789062 -10.734375 Z M 5.3125 -10.71875 C 4.070312 -10.582031 3.039062 -10.105469 2.226562 -9.289062 C 1.257812 -8.324219 0.769531 -7.019531 0.769531 -5.375 C 0.769531 -3.746094 1.257812 -2.441406 2.226562 -1.457031 C 3.039062 -0.660156 4.070312 -0.183594 5.3125 -0.046875 L 5.3125 -1.367188 C 4.4375 -1.535156 3.746094 -1.890625 3.253906 -2.441406 C 2.59375 -3.210938 2.257812 -4.175781 2.257812 -5.375 C 2.257812 -6.601562 2.59375 -7.601562 3.253906 -8.355469 C 3.746094 -8.90625 4.4375 -9.277344 5.3125 -9.429688 Z M 5.3125 -10.71875 "/></g></g></g><g fill="#231f20" fill-opacity="1"><g transform="translate(152.346187, 94.399873)"><g><path d="M 0.769531 -10.796875 L 0.769531 -2.703125 L 2.226562 -2.703125 L 2.226562 -5.144531 L 7.585938 -5.128906 L 7.585938 -6.375 L 2.226562 -6.375 L 2.226562 -9.566406 L 7.585938 -9.566406 L 7.585938 -10.796875 Z M 0.769531 -1.230469 L 0.769531 0 L 7.585938 0 L 7.585938 -1.230469 Z M 0.769531 -1.230469 "/></g></g></g><g fill="#231f20" fill-opacity="1"><g transform="translate(167.566211, 94.399873)"><g><path d="M 0.769531 -10.765625 L 0.769531 0.03125 L 2.226562 0.03125 L 2.226562 -10.765625 Z M 3.699219 -1.199219 L 3.699219 0.03125 L 7.480469 0.03125 L 7.480469 -1.199219 Z M 3.699219 -1.199219 "/></g></g></g><g fill="#231f20" fill-opacity="1"><g transform="translate(119.602626, 112.378657)"><g><path d="M 2.289062 -3.976562 L 0.769531 0 L 2.304688 0 L 3.285156 -2.765625 L 8.15625 -2.765625 L 9.136719 0 L 10.65625 0 L 9.136719 -3.976562 Z M 4.882812 -10.78125 L 2.765625 -5.222656 L 4.191406 -5.222656 L 5.710938 -9.351562 L 7.234375 -5.222656 L 8.660156 -5.222656 L 6.542969 -10.78125 Z M 4.882812 -10.78125 "/></g></g></g><g fill="#231f20" fill-opacity="1"><g transform="translate(137.894005, 112.378657)"><g><path d="M 4.238281 -10.765625 L 0.769531 -10.765625 L 0.78125 -9.335938 L 4.101562 -9.367188 C 4.683594 -9.367188 5.160156 -9.304688 5.558594 -9.121094 C 5.957031 -8.953125 6.34375 -8.707031 6.710938 -8.371094 C 7.554688 -7.464844 7.96875 -6.464844 7.96875 -5.359375 C 7.96875 -4.730469 7.878906 -4.175781 7.679688 -3.714844 C 7.496094 -3.253906 7.203125 -2.824219 6.832031 -2.425781 C 6.511719 -2.074219 6.144531 -1.8125 5.710938 -1.644531 C 5.28125 -1.488281 4.761719 -1.398438 4.132812 -1.398438 L 2.257812 -1.414062 L 2.257812 -7.832031 L 0.769531 -7.832031 L 0.769531 0 L 4.238281 0.015625 C 5.867188 0.015625 7.15625 -0.476562 8.09375 -1.429688 C 9.046875 -2.394531 9.507812 -3.699219 9.507812 -5.359375 C 9.507812 -7.035156 9.046875 -8.339844 8.09375 -9.289062 C 7.140625 -10.273438 5.851562 -10.765625 4.238281 -10.765625 Z M 4.238281 -10.765625 "/></g></g></g><g fill="#231f20" fill-opacity="1"><g transform="translate(155.018274, 112.378657)"><g><path d="M 0.769531 -10.796875 L 0.769531 -2.703125 L 2.226562 -2.703125 L 2.226562 -5.144531 L 7.585938 -5.128906 L 7.585938 -6.375 L 2.226562 -6.375 L 2.226562 -9.566406 L 7.585938 -9.566406 L 7.585938 -10.796875 Z M 0.769531 -1.230469 L 0.769531 0 L 7.585938 0 L 7.585938 -1.230469 Z M 0.769531 -1.230469 "/></g></g></g><g fill="#231f20" fill-opacity="1"><g transform="translate(170.238298, 112.378657)"><g><path d="M 2.179688 0 L 2.179688 -9.03125 L 6.050781 -1.734375 L 6.050781 -4.53125 L 2.734375 -10.796875 L 0.769531 -10.796875 L 0.769531 0 Z M 8.9375 0 L 8.9375 -10.796875 L 7.523438 -10.796875 L 7.523438 0 Z M 8.9375 0 "/></g></g></g><g fill="#231f20" fill-opacity="1"><g transform="translate(186.79436, 112.378657)"><g><path d="M 0.769531 -4.960938 L 0.769531 0 L 2.242188 0 L 2.242188 -4.960938 Z M 0.769531 -10.765625 L 0.769531 -6.417969 L 2.242188 -6.417969 L 2.242188 -10.765625 Z M 0.769531 -10.765625 "/></g></g></g><g fill="#231f20" fill-opacity="1"><g transform="translate(196.654832, 112.378657)"><g><path d="M 0.769531 -10.78125 L 4.578125 -5.144531 L 6.050781 -5.144531 L 9.859375 -10.78125 L 8.292969 -10.78125 L 5.328125 -6.34375 L 2.335938 -10.78125 Z M 4.578125 -3.671875 L 4.578125 0 L 6.050781 0 L 6.050781 -3.671875 Z M 4.578125 -3.671875 "/></g></g></g><g fill="#231f20" fill-opacity="1"><g transform="translate(214.147655, 112.378657)"><g><path d="M 0.769531 -4.960938 L 0.769531 0 L 2.242188 0 L 2.242188 -4.960938 Z M 0.769531 -10.765625 L 0.769531 -6.417969 L 2.242188 -6.417969 L 2.242188 -10.765625 Z M 0.769531 -10.765625 "/></g></g></g><g fill="#231f20" fill-opacity="1"><g transform="translate(224.008127, 112.378657)"><g><path d="M 8.984375 0.613281 L 0.769531 0.613281 L 0.769531 1.519531 L 8.984375 1.519531 Z M 8.984375 0.613281 "/></g></g></g><g clip-path="url(#8ab513968d)"><path fill="#000000" d="M 98.90625 79.664062 C 99.027344 79.65625 99.152344 79.640625 99.273438 79.640625 C 102.109375 79.640625 104.949219 79.644531 107.789062 79.632812 C 108.113281 79.628906 108.203125 79.738281 108.199219 80.042969 C 108.191406 81.558594 108.199219 83.074219 108.199219 84.585938 C 108.199219 90.367188 108.195312 96.148438 108.203125 101.925781 C 108.207031 103.714844 107.941406 105.449219 107.234375 107.09375 C 105.804688 110.429688 103.394531 112.8125 100.011719 114.195312 C 98.136719 114.964844 96.167969 115.261719 94.144531 115.085938 C 90.382812 114.761719 87.304688 113.132812 84.925781 110.222656 C 84.832031 110.109375 84.800781 109.855469 84.863281 109.726562 C 85.628906 108.175781 86.417969 106.636719 87.203125 105.09375 C 87.246094 105.015625 87.320312 104.953125 87.386719 104.875 C 87.644531 105.375 87.851562 105.84375 88.113281 106.285156 C 89.828125 109.1875 93.140625 110.714844 96.492188 110.160156 C 99.847656 109.605469 102.457031 107.121094 103.140625 103.796875 C 103.246094 103.269531 103.296875 102.722656 103.300781 102.183594 C 103.3125 96.417969 103.304688 90.648438 103.3125 84.882812 C 103.3125 84.5625 103.214844 84.460938 102.894531 84.476562 C 102.4375 84.5 101.980469 84.492188 101.519531 84.46875 C 101.394531 84.460938 101.210938 84.375 101.15625 84.273438 C 100.394531 82.792969 99.652344 81.300781 98.910156 79.8125 C 98.894531 79.785156 98.90625 79.742188 98.90625 79.664062 Z M 98.90625 79.664062 " fill-opacity="1" fill-rule="nonzero"/></g><g clip-path="url(#c27b655bbb)"><path fill="#000000" d="M 101.902344 89.378906 C 101.902344 89.101562 101.832031 88.800781 101.710938 88.554688 C 99.863281 84.851562 98.003906 81.15625 96.144531 77.460938 C 95.839844 76.855469 95.53125 76.257812 95.175781 75.558594 C 88.488281 88.699219 81.859375 101.730469 75.203125 114.8125 L 80.6875 114.8125 C 83.402344 109.464844 86.125 104.117188 88.84375 98.769531 C 90.644531 95.226562 92.445312 91.679688 94.246094 88.136719 C 94.527344 87.578125 94.820312 87.023438 95.160156 86.375 C 97.394531 90.820312 99.585938 95.175781 101.777344 99.535156 C 101.8125 99.523438 101.851562 99.515625 101.886719 99.503906 C 101.894531 99.398438 101.914062 99.292969 101.914062 99.1875 C 101.914062 95.917969 101.917969 92.648438 101.902344 89.378906 Z M 101.902344 89.378906 " fill-opacity="1" fill-rule="nonzero"/></g><g clip-path="url(#4c7542a982)"><path fill="#000000" d="M 109.386719 114.6875 L 114.847656 114.6875 C 113.082031 111.167969 111.34375 107.707031 109.601562 104.238281 C 109.539062 104.277344 109.503906 104.285156 109.5 104.300781 C 109.472656 104.382812 109.445312 104.46875 109.429688 104.554688 C 109.074219 106.511719 108.378906 108.332031 107.292969 110.007812 C 107.21875 110.125 107.226562 110.355469 107.292969 110.488281 C 107.980469 111.894531 108.695312 113.285156 109.386719 114.6875 Z M 109.386719 114.6875 " fill-opacity="1" fill-rule="nonzero"/></g></svg>