<svg xmlns="http://www.w3.org/2000/svg" xmlns:xlink="http://www.w3.org/1999/xlink" width="20"  viewBox="50 90 277 200" height="20" preserveAspectRatio="xMidYMid meet" version="1.0"><defs><g/><clipPath id="b575ec7c21"><path d="M 75.378906 75.527344 L 146 75.527344 L 146 162.582031 L 75.378906 162.582031 Z M 75.378906 75.527344 " clip-rule="nonzero"/></clipPath></defs><g clip-path="url(#b575ec7c21)"><path fill="#000000" d="M 146 80.96875 L 146 151.703125 L 140.566406 151.703125 L 140.566406 157.140625 L 135.136719 157.140625 L 135.136719 162.582031 L 86.25 162.582031 L 86.25 157.144531 L 80.816406 157.140625 L 80.816406 151.699219 L 75.386719 151.699219 L 75.386719 124.496094 L 80.816406 124.496094 L 80.816406 119.054688 L 91.679688 119.054688 L 91.679688 124.496094 L 97.117188 124.496094 L 97.117188 129.933594 L 97.113281 129.933594 L 97.113281 135.375 L 102.542969 135.375 L 102.542969 140.816406 L 107.976562 140.816406 L 107.976562 135.375 L 113.410156 135.375 L 113.410156 80.96875 L 118.839844 80.96875 L 118.839844 75.527344 L 140.566406 75.527344 L 140.566406 80.96875 Z M 146 80.96875 " fill-opacity="1" fill-rule="nonzero"/></g><path fill="#ffffff" d="M 124.273438 97.289062 L 129.703125 97.289062 L 129.703125 102.730469 L 124.273438 102.730469 Z M 124.273438 80.96875 L 124.273438 91.847656 L 129.703125 91.847656 L 129.703125 86.40625 L 135.136719 86.40625 L 135.136719 80.96875 Z M 124.273438 80.96875 " fill-opacity="1" fill-rule="nonzero"/><g fill="#151214" fill-opacity="1"><g transform="translate(152.873638, 155.191374)"><g><path d="M 0.59375 2.75 L 0.59375 0 L 24.921875 0 L 24.921875 2.75 Z M 0.59375 2.75 "/></g></g></g></svg>